<svg xmlns="http://www.w3.org/2000/svg" xmlns:xlink="http://www.w3.org/1999/xlink" width="840" height="581">
<rect width="840" height="581" rx="8" ry="8" fill="#1E1A14"/>
<svg y="0%" x="0%">
  <circle cx="20" cy="18" r="6" fill="#ff5f58"/>
  <circle cx="40" cy="18" r="6" fill="#ffbd2e"/>
  <circle cx="60" cy="18" r="6" fill="#18c132"/>
  <text x="420" y="22" text-anchor="middle" fill="#8A7D65" font-family="Monaco,Consolas,Menlo,monospace" font-size="12">seshat — TUI</text>
</svg>
<svg height="521.0" viewBox="0 0 80 52.104" width="800" x="15" y="46">
<style>
@keyframes s{0.000%{transform:translateX(0px)}10.526%{transform:translateX(-80px)}24.561%{transform:translateX(-160px)}35.088%{transform:translateX(-240px)}49.123%{transform:translateX(-320px)}63.158%{transform:translateX(-400px)}77.193%{transform:translateX(-480px)}89.474%{transform:translateX(-560px)}100%{transform:translateX(-560px)}}
text{white-space:pre;font-family:Monaco,Consolas,Menlo,'Bitstream Vera Sans Mono',monospace;font-size:1.67px}
</style>
<g style="animation-duration:28.5s;animation-iteration-count:infinite;animation-name:s;animation-timing-function:steps(1,end)">
<svg width="640">
<svg x="0">
<rect width="80" height="52.104" fill="#0C0A07"/>
<rect x="0.000" y="0.000" width="80.160" height="52.104" fill="#0C0A07"/>
<text x="19.038" y="10.354" fill="#F6C56E">███████ ███████ ███████ █  █  █████  █████</text>
<text x="19.038" y="12.525" fill="#F6C56E">█       █       █       █  █  █   █    █  </text>
<text x="19.038" y="14.696" fill="#E8AE52">███████ ███████ ███████ ████  █████    █  </text>
<text x="19.038" y="16.867" fill="#A07E3E">      █ █             █ █  █  █   █    █  </text>
<text x="19.038" y="19.038" fill="#5F5340">███████ ███████ ███████ █  █  █   █    █  </text>
<text x="22.044" y="25.551" fill="#9A8B6E">local environmental agent harness</text>
<text x="20.040" y="32.064" fill="#9A8B6E">registry</text>
<text x="34.068" y="32.064" fill="#5FAD56">5 projects</text>
<text x="20.040" y="34.235" fill="#9A8B6E">agreement</text>
<text x="34.068" y="34.235" fill="#5FAD56">6 rules loaded</text>
<text x="20.040" y="36.406" fill="#9A8B6E">receipts</text>
<text x="34.068" y="36.406" fill="#5FAD56">47 verified</text>
<text x="20.040" y="38.577" fill="#9A8B6E">revocations</text>
<text x="34.068" y="38.577" fill="#5FAD56">0 active</text>
<text x="20.040" y="40.748" fill="#9A8B6E">vault</text>
<text x="34.068" y="40.748" fill="#5FAD56">● connected</text>
<text x="30.060" y="45.090" fill="#5FAD56" font-weight="700">ready</text>
</svg>
<svg x="80">
<rect width="80" height="52.104" fill="#0C0A07"/>
<rect x="0.000" y="0.000" width="80.160" height="52.104" fill="#0C0A07"/>
<rect x="0.000" y="0.000" width="80.160" height="2.822" fill="#16120D"/>
<rect x="0" y="2.822" width="80" height="0.15" fill="#2E2820"/>
<text x="1.002" y="1.670" fill="#E8AE52">❖</text>
<text x="3.006" y="1.670" fill="#F6C56E" font-weight="700">SESHAT</text>
<text x="12.024" y="1.670" fill="#EDE0C6" font-weight="700">◆ Projects</text>
<rect x="12.024" y="2.714" width="10.020" height="0.25" fill="#E8AE52"/>
<text x="24.048" y="1.670" fill="#9A8B6E">≡ Agreements</text>
<text x="38.076" y="1.670" fill="#9A8B6E">◈ Receipts</text>
<text x="49.098" y="1.670" fill="#9A8B6E">◇ Invariant</text>
<text x="61.122" y="1.670" fill="#9A8B6E">⊘ Revocations</text>
<text x="72.144" y="1.670" fill="#9A8B6E">⌸ Vault</text>
<rect x="1.002" y="3.256" width="78.156" height="2.605" fill="#16120D"/>
<text x="2.004" y="5.361" fill="#9A8B6E">Total: </text>
<text x="9.018" y="5.361" fill="#EDE0C6">5</text>
<text x="14.028" y="5.361" fill="#9A8B6E">Running: </text>
<text x="23.046" y="5.361" fill="#5FAD56">3</text>
<text x="28.056" y="5.361" fill="#9A8B6E">Stopped: </text>
<text x="37.074" y="5.361" fill="#9A8B6E">2</text>
<text x="55.110" y="5.361" fill="#5F5340">▁▂▃▅▇▆▄▃▂▅▇▃▂▁▃▅▇▆▃▁</text>
<text x="2.004" y="8.617" fill="#9A8B6E" font-weight="700">  Name                Port   Status    Started by         Dir</text>
<rect x="0" y="9.118" width="80" height="0.15" fill="#2E2820"/>
<rect x="1.002" y="9.552" width="52.104" height="2.171" fill="#262117"/>
<text x="2.004" y="11.439" fill="#5FAD56">●</text>
<text x="4.008" y="11.439" fill="#EDE0C6" font-weight="700">api-gateway</text>
<text x="22.044" y="11.439" fill="#5AADA8">3000</text>
<text x="29.058" y="11.439" fill="#5FAD56">running</text>
<text x="39.078" y="11.439" fill="#9B7ACC">mcp_session_a8f2</text>
<text x="58.116" y="11.439" fill="#9A8B6E">~/api-gateway</text>
<rect x="1.002" y="11.723" width="52.104" height="0.15" fill="#E8AE52" opacity="0.5"/>
<text x="2.004" y="14.045" fill="#5FAD56">●</text>
<text x="4.008" y="14.045" fill="#EDE0C6">auth-service</text>
<text x="22.044" y="14.045" fill="#5AADA8">3100</text>
<text x="29.058" y="14.045" fill="#5FAD56">running</text>
<text x="39.078" y="14.045" fill="#9A8B6E">dashboard</text>
<text x="58.116" y="14.045" fill="#9A8B6E">~/auth-service</text>
<text x="2.004" y="16.650" fill="#9A8B6E">○</text>
<text x="4.008" y="16.650" fill="#C3B492">data-pipeline</text>
<text x="22.044" y="16.650" fill="#5AADA8">4200</text>
<text x="29.058" y="16.650" fill="#9A8B6E">stopped</text>
<text x="39.078" y="16.650" fill="#5F5340">—</text>
<text x="58.116" y="16.650" fill="#9A8B6E">~/data-pipeline</text>
<text x="2.004" y="19.255" fill="#9A8B6E">○</text>
<text x="4.008" y="19.255" fill="#C3B492">ml-inference</text>
<text x="22.044" y="19.255" fill="#5AADA8">5000</text>
<text x="29.058" y="19.255" fill="#9A8B6E">stopped</text>
<text x="39.078" y="19.255" fill="#5F5340">—</text>
<text x="58.116" y="19.255" fill="#9A8B6E">~/ml-inference</text>
<text x="2.004" y="21.860" fill="#5FAD56">●</text>
<text x="4.008" y="21.860" fill="#EDE0C6">notification-svc</text>
<text x="22.044" y="21.860" fill="#5AADA8">5100</text>
<text x="29.058" y="21.860" fill="#5FAD56">running</text>
<text x="39.078" y="21.860" fill="#9A8B6E">cli_user</text>
<text x="58.116" y="21.860" fill="#9A8B6E">~/notif-svc</text>
<rect x="55.110" y="9.552" width="24.048" height="30.394" fill="#16120D"/>
<text x="56.112" y="11.874" fill="#9A8B6E" font-weight="700">PROJECT DETAIL</text>
<rect x="0" y="11.940" width="80" height="0.15" fill="#2E2820"/>
<text x="56.112" y="14.262" fill="#9A8B6E">Name</text>
<text x="56.112" y="15.999" fill="#EDE0C6">api-gateway</text>
<text x="56.112" y="18.170" fill="#9A8B6E">Port</text>
<text x="56.112" y="19.906" fill="#5AADA8">3000</text>
<text x="56.112" y="22.077" fill="#9A8B6E">Status</text>
<text x="56.112" y="23.814" fill="#5FAD56">running</text>
<text x="56.112" y="25.985" fill="#9A8B6E">Started by</text>
<text x="56.112" y="27.722" fill="#9B7ACC">mcp_session_a8f2</text>
<text x="56.112" y="29.893" fill="#9A8B6E">PID</text>
<text x="56.112" y="31.630" fill="#C3B492">41892</text>
<rect x="55.110" y="34.736" width="24.048" height="2.171" fill="#1E1A14"/>
<text x="56.112" y="36.623" fill="#E8AE52">x</text>
<text x="58.116" y="36.623" fill="#C3B492">stop</text>
<text x="64.128" y="36.623" fill="#E8AE52">o</text>
<text x="66.132" y="36.623" fill="#C3B492">logs</text>
<text x="72.144" y="36.623" fill="#E8AE52">↵</text>
<text x="74.148" y="36.623" fill="#C3B492">open</text>
<rect x="0.000" y="47.762" width="80.160" height="2.171" fill="#16120D"/>
<rect x="0" y="47.762" width="80" height="0.15" fill="#2E2820"/>
<text x="1.002" y="49.432" fill="#E8AE52">s</text>
<text x="3.006" y="49.432" fill="#C3B492">start</text>
<text x="10.020" y="49.432" fill="#E8AE52">x</text>
<text x="12.024" y="49.432" fill="#C3B492">stop</text>
<text x="18.036" y="49.432" fill="#E8AE52">a</text>
<text x="20.040" y="49.432" fill="#C3B492">start-group</text>
<text x="33.066" y="49.432" fill="#E8AE52">o</text>
<text x="35.070" y="49.432" fill="#C3B492">logs</text>
<text x="41.082" y="49.432" fill="#E8AE52">n</text>
<text x="43.086" y="49.432" fill="#C3B492">register</text>
<text x="53.106" y="49.432" fill="#E8AE52">:</text>
<text x="55.110" y="49.432" fill="#C3B492">palette</text>
<text x="64.128" y="49.432" fill="#E8AE52">?</text>
<text x="66.132" y="49.432" fill="#C3B492">help</text>
<rect x="0.000" y="49.933" width="80.160" height="2.171" fill="#1E1A14"/>
<text x="1.002" y="51.603" fill="#5F5340">◆ Projects  ·  5 registered  ·  3 running</text>
<text x="77.154" y="51.603" fill="#5F5340">❖</text>
</svg>
<svg x="160">
<rect width="80" height="52.104" fill="#0C0A07"/>
<rect x="0.000" y="0.000" width="80.160" height="52.104" fill="#0C0A07"/>
<rect x="0.000" y="0.000" width="80.160" height="2.822" fill="#16120D"/>
<rect x="0" y="2.822" width="80" height="0.15" fill="#2E2820"/>
<text x="1.002" y="1.670" fill="#E8AE52">❖</text>
<text x="3.006" y="1.670" fill="#F6C56E" font-weight="700">SESHAT</text>
<text x="12.024" y="1.670" fill="#EDE0C6" font-weight="700">◆ Projects</text>
<rect x="12.024" y="2.714" width="10.020" height="0.25" fill="#E8AE52"/>
<text x="24.048" y="1.670" fill="#9A8B6E">≡ Agreements</text>
<text x="38.076" y="1.670" fill="#9A8B6E">◈ Receipts</text>
<text x="49.098" y="1.670" fill="#9A8B6E">◇ Invariant</text>
<text x="61.122" y="1.670" fill="#9A8B6E">⊘ Revocations</text>
<text x="72.144" y="1.670" fill="#9A8B6E">⌸ Vault</text>
<rect x="1.002" y="3.256" width="78.156" height="2.605" fill="#16120D"/>
<text x="2.004" y="5.361" fill="#9A8B6E">Total: </text>
<text x="9.018" y="5.361" fill="#EDE0C6">5</text>
<text x="14.028" y="5.361" fill="#9A8B6E">Running: </text>
<text x="23.046" y="5.361" fill="#5FAD56">3</text>
<text x="28.056" y="5.361" fill="#9A8B6E">Stopped: </text>
<text x="37.074" y="5.361" fill="#9A8B6E">2</text>
<text x="55.110" y="5.361" fill="#5F5340">▁▂▃▅▇▆▄▃▂▅▇▃▂▁▃▅▇▆▃▁</text>
<text x="2.004" y="8.617" fill="#9A8B6E" font-weight="700">  Name                Port   Status    Started by         Dir</text>
<rect x="0" y="9.118" width="80" height="0.15" fill="#2E2820"/>
<rect x="1.002" y="9.552" width="52.104" height="2.171" fill="#262117"/>
<text x="2.004" y="11.439" fill="#5FAD56">●</text>
<text x="4.008" y="11.439" fill="#EDE0C6" font-weight="700">api-gateway</text>
<text x="22.044" y="11.439" fill="#5AADA8">3000</text>
<text x="29.058" y="11.439" fill="#5FAD56">running</text>
<text x="39.078" y="11.439" fill="#9B7ACC">mcp_session_a8f2</text>
<text x="58.116" y="11.439" fill="#9A8B6E">~/api-gateway</text>
<rect x="1.002" y="11.723" width="52.104" height="0.15" fill="#E8AE52" opacity="0.5"/>
<text x="2.004" y="14.045" fill="#5FAD56">●</text>
<text x="4.008" y="14.045" fill="#EDE0C6">auth-service</text>
<text x="22.044" y="14.045" fill="#5AADA8">3100</text>
<text x="29.058" y="14.045" fill="#5FAD56">running</text>
<text x="39.078" y="14.045" fill="#9A8B6E">dashboard</text>
<text x="58.116" y="14.045" fill="#9A8B6E">~/auth-service</text>
<text x="2.004" y="16.650" fill="#9A8B6E">○</text>
<text x="4.008" y="16.650" fill="#C3B492">data-pipeline</text>
<text x="22.044" y="16.650" fill="#5AADA8">4200</text>
<text x="29.058" y="16.650" fill="#9A8B6E">stopped</text>
<text x="39.078" y="16.650" fill="#5F5340">—</text>
<text x="58.116" y="16.650" fill="#9A8B6E">~/data-pipeline</text>
<text x="2.004" y="19.255" fill="#9A8B6E">○</text>
<text x="4.008" y="19.255" fill="#C3B492">ml-inference</text>
<text x="22.044" y="19.255" fill="#5AADA8">5000</text>
<text x="29.058" y="19.255" fill="#9A8B6E">stopped</text>
<text x="39.078" y="19.255" fill="#5F5340">—</text>
<text x="58.116" y="19.255" fill="#9A8B6E">~/ml-inference</text>
<text x="2.004" y="21.860" fill="#5FAD56">●</text>
<text x="4.008" y="21.860" fill="#EDE0C6">notification-svc</text>
<text x="22.044" y="21.860" fill="#5AADA8">5100</text>
<text x="29.058" y="21.860" fill="#5FAD56">running</text>
<text x="39.078" y="21.860" fill="#9A8B6E">cli_user</text>
<text x="58.116" y="21.860" fill="#9A8B6E">~/notif-svc</text>
<rect x="55.110" y="9.552" width="24.048" height="30.394" fill="#16120D"/>
<text x="56.112" y="11.874" fill="#9A8B6E" font-weight="700">PROJECT DETAIL</text>
<rect x="0" y="11.940" width="80" height="0.15" fill="#2E2820"/>
<text x="56.112" y="14.262" fill="#9A8B6E">Name</text>
<text x="56.112" y="15.999" fill="#EDE0C6">api-gateway</text>
<text x="56.112" y="18.170" fill="#9A8B6E">Port</text>
<text x="56.112" y="19.906" fill="#5AADA8">3000</text>
<text x="56.112" y="22.077" fill="#9A8B6E">Status</text>
<text x="56.112" y="23.814" fill="#5FAD56">running</text>
<text x="56.112" y="25.985" fill="#9A8B6E">Started by</text>
<text x="56.112" y="27.722" fill="#9B7ACC">mcp_session_a8f2</text>
<text x="56.112" y="29.893" fill="#9A8B6E">PID</text>
<text x="56.112" y="31.630" fill="#C3B492">41892</text>
<rect x="55.110" y="34.736" width="24.048" height="2.171" fill="#1E1A14"/>
<text x="56.112" y="36.623" fill="#E8AE52">x</text>
<text x="58.116" y="36.623" fill="#C3B492">stop</text>
<text x="64.128" y="36.623" fill="#E8AE52">o</text>
<text x="66.132" y="36.623" fill="#C3B492">logs</text>
<text x="72.144" y="36.623" fill="#E8AE52">↵</text>
<text x="74.148" y="36.623" fill="#C3B492">open</text>
<rect x="0.000" y="47.762" width="80.160" height="2.171" fill="#16120D"/>
<rect x="0" y="47.762" width="80" height="0.15" fill="#2E2820"/>
<text x="1.002" y="49.432" fill="#E8AE52">s</text>
<text x="3.006" y="49.432" fill="#C3B492">start</text>
<text x="10.020" y="49.432" fill="#E8AE52">x</text>
<text x="12.024" y="49.432" fill="#C3B492">stop</text>
<text x="18.036" y="49.432" fill="#E8AE52">a</text>
<text x="20.040" y="49.432" fill="#C3B492">start-group</text>
<text x="33.066" y="49.432" fill="#E8AE52">o</text>
<text x="35.070" y="49.432" fill="#C3B492">logs</text>
<text x="41.082" y="49.432" fill="#E8AE52">n</text>
<text x="43.086" y="49.432" fill="#C3B492">register</text>
<text x="53.106" y="49.432" fill="#E8AE52">:</text>
<text x="55.110" y="49.432" fill="#C3B492">palette</text>
<text x="64.128" y="49.432" fill="#E8AE52">?</text>
<text x="66.132" y="49.432" fill="#C3B492">help</text>
<rect x="0.000" y="49.933" width="80.160" height="2.171" fill="#1E1A14"/>
<text x="1.002" y="51.603" fill="#5F5340">◆ Projects  ·  5 registered  ·  3 running</text>
<text x="77.154" y="51.603" fill="#5F5340">❖</text>
</svg>
<svg x="240">
<rect width="80" height="52.104" fill="#0C0A07"/>
<rect x="0.000" y="0.000" width="80.160" height="52.104" fill="#0C0A07"/>
<rect x="0.000" y="0.000" width="80.160" height="2.822" fill="#16120D"/>
<rect x="0" y="2.822" width="80" height="0.15" fill="#2E2820"/>
<text x="1.002" y="1.670" fill="#E8AE52">❖</text>
<text x="3.006" y="1.670" fill="#F6C56E" font-weight="700">SESHAT</text>
<text x="12.024" y="1.670" fill="#9A8B6E">◆ Projects</text>
<text x="24.048" y="1.670" fill="#9A8B6E">≡ Agreements</text>
<text x="38.076" y="1.670" fill="#EDE0C6" font-weight="700">◈ Receipts</text>
<rect x="38.076" y="2.714" width="10.020" height="0.25" fill="#E8AE52"/>
<text x="49.098" y="1.670" fill="#9A8B6E">◇ Invariant</text>
<text x="61.122" y="1.670" fill="#9A8B6E">⊘ Revocations</text>
<text x="72.144" y="1.670" fill="#9A8B6E">⌸ Vault</text>
<rect x="1.002" y="3.256" width="78.156" height="2.605" fill="#16120D"/>
<text x="2.004" y="5.361" fill="#9A8B6E">Total: </text>
<text x="9.018" y="5.361" fill="#EDE0C6">47</text>
<text x="15.030" y="5.361" fill="#9A8B6E">Permitted: </text>
<text x="26.052" y="5.361" fill="#5FAD56">39</text>
<text x="32.064" y="5.361" fill="#9A8B6E">Denied: </text>
<text x="40.080" y="5.361" fill="#C45B4A">8</text>
<text x="46.092" y="5.361" fill="#9A8B6E">Chain: </text>
<text x="53.106" y="5.361" fill="#5FAD56">● intact</text>
<text x="65.130" y="5.361" fill="#5F5340">▁▂▃▅▇▆▄▃▂▅▇▃</text>
<text x="4.008" y="8.617" fill="#9A8B6E" font-weight="700">Time        Action           Target           Actor</text>
<rect x="0" y="9.118" width="80" height="0.15" fill="#2E2820"/>
<rect x="1.002" y="9.552" width="52.104" height="2.171" fill="#262117"/>
<text x="1.002" y="11.439" fill="#E8AE52">◆</text>
<text x="4.008" y="11.439" fill="#C3B492">09:41:23</text>
<text x="16.032" y="11.439" fill="#5FAD56">start_project</text>
<text x="33.066" y="11.439" fill="#EDE0C6">data-pipeline</text>
<text x="50.100" y="11.439" fill="#9B7ACC">mcp_a8f2</text>
<rect x="1.002" y="11.723" width="52.104" height="0.15" fill="#E8AE52" opacity="0.5"/>
<text x="1.002" y="14.045" fill="#5F5340">│</text>
<text x="1.002" y="15.781" fill="#C45B4A">◆</text>
<text x="4.008" y="15.781" fill="#C3B492">09:41:18</text>
<text x="16.032" y="15.781" fill="#C45B4A">set_secret</text>
<text x="33.066" y="15.781" fill="#EDE0C6">DB_PASSWORD</text>
<text x="50.100" y="15.781" fill="#9B7ACC">mcp_a8f2</text>
<text x="1.002" y="17.953" fill="#5F5340">└</text>
<text x="3.006" y="17.953" fill="#9A8B6E">&quot;agents cannot modify secrets&quot;</text>
<text x="1.002" y="20.123" fill="#5F5340">│</text>
<text x="1.002" y="21.860" fill="#E8AE52">◆</text>
<text x="4.008" y="21.860" fill="#C3B492">09:38:05</text>
<text x="16.032" y="21.860" fill="#5FAD56">stop_project</text>
<text x="33.066" y="21.860" fill="#EDE0C6">auth-service</text>
<text x="50.100" y="21.860" fill="#9A8B6E">cli_user</text>
<text x="1.002" y="24.031" fill="#5F5340">│</text>
<text x="1.002" y="25.768" fill="#E8AE52">◆</text>
<text x="4.008" y="25.768" fill="#C3B492">09:35:42</text>
<text x="16.032" y="25.768" fill="#5FAD56">start_project</text>
<text x="33.066" y="25.768" fill="#EDE0C6">auth-service</text>
<text x="50.100" y="25.768" fill="#9B7ACC">mcp_a8f2</text>
<text x="1.002" y="27.939" fill="#5F5340">│</text>
<text x="1.002" y="29.676" fill="#E8AE52">◆</text>
<text x="4.008" y="29.676" fill="#C3B492">09:32:11</text>
<text x="16.032" y="29.676" fill="#5FAD56">read_logs</text>
<text x="33.066" y="29.676" fill="#EDE0C6">api-gateway</text>
<text x="50.100" y="29.676" fill="#9B7ACC">mcp_a8f2</text>
<text x="1.002" y="31.847" fill="#5F5340">│</text>
<text x="1.002" y="33.584" fill="#C45B4A">◆</text>
<text x="4.008" y="33.584" fill="#C3B492">09:30:55</text>
<text x="16.032" y="33.584" fill="#C45B4A">delete_project</text>
<text x="33.066" y="33.584" fill="#EDE0C6">ml-inference</text>
<text x="50.100" y="33.584" fill="#9B7ACC">mcp_a8f2</text>
<text x="1.002" y="35.755" fill="#5F5340">└</text>
<text x="3.006" y="35.755" fill="#9A8B6E">&quot;deletion requires human confirmation&quot;</text>
<text x="1.002" y="37.926" fill="#5F5340">│</text>
<text x="1.002" y="39.663" fill="#5F5340">╎</text>
<text x="3.006" y="39.663" fill="#9A8B6E">41 more receipts</text>
<rect x="55.110" y="9.552" width="24.048" height="31.479" fill="#16120D"/>
<text x="56.112" y="11.874" fill="#9A8B6E" font-weight="700">RECEIPT DETAIL</text>
<rect x="0" y="11.940" width="80" height="0.15" fill="#2E2820"/>
<text x="56.112" y="14.262" fill="#9A8B6E">Action</text>
<text x="56.112" y="15.781" fill="#5FAD56">start_project</text>
<text x="56.112" y="17.953" fill="#9A8B6E">Target</text>
<text x="56.112" y="19.472" fill="#EDE0C6">data-pipeline</text>
<text x="56.112" y="21.643" fill="#9A8B6E">Actor</text>
<text x="56.112" y="23.163" fill="#9B7ACC">mcp_session_a8f2</text>
<text x="56.112" y="25.334" fill="#9A8B6E">Timestamp</text>
<text x="56.112" y="26.854" fill="#C3B492">2026-07-15 09:41:23</text>
<text x="56.112" y="29.025" fill="#9A8B6E">Result</text>
<text x="56.112" y="30.544" fill="#5FAD56">permitted</text>
<text x="56.112" y="32.715" fill="#9A8B6E">Receipt Hash</text>
<text x="56.112" y="34.235" fill="#C3B492">a8f2c3d1e5b7...</text>
<text x="56.112" y="36.406" fill="#9A8B6E">Previous Hash</text>
<text x="56.112" y="37.926" fill="#C3B492">7b4e9f2a1c83...</text>
<rect x="55.110" y="38.427" width="24.048" height="2.171" fill="#1E1A14"/>
<text x="56.112" y="40.314" fill="#E8AE52">↵</text>
<text x="58.116" y="40.314" fill="#C3B492">inspect</text>
<text x="67.134" y="40.314" fill="#E8AE52">y</text>
<text x="69.138" y="40.314" fill="#C3B492">sync</text>
<text x="75.150" y="40.314" fill="#E8AE52">v</text>
<text x="77.154" y="40.314" fill="#C3B492">vfy</text>
<rect x="0.000" y="47.762" width="80.160" height="2.171" fill="#16120D"/>
<rect x="0" y="47.762" width="80" height="0.15" fill="#2E2820"/>
<text x="1.002" y="49.432" fill="#E8AE52">f</text>
<text x="3.006" y="49.432" fill="#C3B492">follow</text>
<text x="11.022" y="49.432" fill="#E8AE52">v</text>
<text x="13.026" y="49.432" fill="#C3B492">verify</text>
<text x="21.042" y="49.432" fill="#E8AE52">y</text>
<text x="23.046" y="49.432" fill="#C3B492">sync</text>
<text x="29.058" y="49.432" fill="#E8AE52">↵</text>
<text x="31.062" y="49.432" fill="#C3B492">inspect</text>
<text x="40.080" y="49.432" fill="#E8AE52">:</text>
<text x="42.084" y="49.432" fill="#C3B492">palette</text>
<text x="51.102" y="49.432" fill="#E8AE52">?</text>
<text x="53.106" y="49.432" fill="#C3B492">help</text>
<rect x="0.000" y="49.933" width="80.160" height="2.171" fill="#1E1A14"/>
<text x="1.002" y="51.603" fill="#5F5340">◈ Receipts  ·  47 total  ·  chain intact  ·  synced</text>
<text x="77.154" y="51.603" fill="#5F5340">❖</text>
</svg>
<svg x="320">
<rect width="80" height="52.104" fill="#0C0A07"/>
<rect x="0.000" y="0.000" width="80.160" height="52.104" fill="#0C0A07"/>
<rect x="0.000" y="0.000" width="80.160" height="2.822" fill="#16120D"/>
<rect x="0" y="2.822" width="80" height="0.15" fill="#2E2820"/>
<text x="1.002" y="1.670" fill="#E8AE52">❖</text>
<text x="3.006" y="1.670" fill="#F6C56E" font-weight="700">SESHAT</text>
<text x="12.024" y="1.670" fill="#9A8B6E">◆ Projects</text>
<text x="24.048" y="1.670" fill="#9A8B6E">≡ Agreements</text>
<text x="38.076" y="1.670" fill="#EDE0C6" font-weight="700">◈ Receipts</text>
<rect x="38.076" y="2.714" width="10.020" height="0.25" fill="#E8AE52"/>
<text x="49.098" y="1.670" fill="#9A8B6E">◇ Invariant</text>
<text x="61.122" y="1.670" fill="#9A8B6E">⊘ Revocations</text>
<text x="72.144" y="1.670" fill="#9A8B6E">⌸ Vault</text>
<rect x="1.002" y="3.256" width="78.156" height="2.605" fill="#16120D"/>
<text x="2.004" y="5.361" fill="#9A8B6E">Total: </text>
<text x="9.018" y="5.361" fill="#EDE0C6">47</text>
<text x="15.030" y="5.361" fill="#9A8B6E">Permitted: </text>
<text x="26.052" y="5.361" fill="#5FAD56">39</text>
<text x="32.064" y="5.361" fill="#9A8B6E">Denied: </text>
<text x="40.080" y="5.361" fill="#C45B4A">8</text>
<text x="46.092" y="5.361" fill="#9A8B6E">Chain: </text>
<text x="53.106" y="5.361" fill="#5FAD56">● intact</text>
<text x="65.130" y="5.361" fill="#5F5340">▁▂▃▅▇▆▄▃▂▅▇▃</text>
<text x="4.008" y="8.617" fill="#9A8B6E" font-weight="700">Time        Action           Target           Actor</text>
<rect x="0" y="9.118" width="80" height="0.15" fill="#2E2820"/>
<rect x="1.002" y="9.552" width="52.104" height="2.171" fill="#262117"/>
<text x="1.002" y="11.439" fill="#E8AE52">◆</text>
<text x="4.008" y="11.439" fill="#C3B492">09:41:23</text>
<text x="16.032" y="11.439" fill="#5FAD56">start_project</text>
<text x="33.066" y="11.439" fill="#EDE0C6">data-pipeline</text>
<text x="50.100" y="11.439" fill="#9B7ACC">mcp_a8f2</text>
<rect x="1.002" y="11.723" width="52.104" height="0.15" fill="#E8AE52" opacity="0.5"/>
<text x="1.002" y="14.045" fill="#5F5340">│</text>
<text x="1.002" y="15.781" fill="#C45B4A">◆</text>
<text x="4.008" y="15.781" fill="#C3B492">09:41:18</text>
<text x="16.032" y="15.781" fill="#C45B4A">set_secret</text>
<text x="33.066" y="15.781" fill="#EDE0C6">DB_PASSWORD</text>
<text x="50.100" y="15.781" fill="#9B7ACC">mcp_a8f2</text>
<text x="1.002" y="17.953" fill="#5F5340">└</text>
<text x="3.006" y="17.953" fill="#9A8B6E">&quot;agents cannot modify secrets&quot;</text>
<text x="1.002" y="20.123" fill="#5F5340">│</text>
<text x="1.002" y="21.860" fill="#E8AE52">◆</text>
<text x="4.008" y="21.860" fill="#C3B492">09:38:05</text>
<text x="16.032" y="21.860" fill="#5FAD56">stop_project</text>
<text x="33.066" y="21.860" fill="#EDE0C6">auth-service</text>
<text x="50.100" y="21.860" fill="#9A8B6E">cli_user</text>
<text x="1.002" y="24.031" fill="#5F5340">│</text>
<text x="1.002" y="25.768" fill="#E8AE52">◆</text>
<text x="4.008" y="25.768" fill="#C3B492">09:35:42</text>
<text x="16.032" y="25.768" fill="#5FAD56">start_project</text>
<text x="33.066" y="25.768" fill="#EDE0C6">auth-service</text>
<text x="50.100" y="25.768" fill="#9B7ACC">mcp_a8f2</text>
<text x="1.002" y="27.939" fill="#5F5340">│</text>
<text x="1.002" y="29.676" fill="#E8AE52">◆</text>
<text x="4.008" y="29.676" fill="#C3B492">09:32:11</text>
<text x="16.032" y="29.676" fill="#5FAD56">read_logs</text>
<text x="33.066" y="29.676" fill="#EDE0C6">api-gateway</text>
<text x="50.100" y="29.676" fill="#9B7ACC">mcp_a8f2</text>
<text x="1.002" y="31.847" fill="#5F5340">│</text>
<text x="1.002" y="33.584" fill="#C45B4A">◆</text>
<text x="4.008" y="33.584" fill="#C3B492">09:30:55</text>
<text x="16.032" y="33.584" fill="#C45B4A">delete_project</text>
<text x="33.066" y="33.584" fill="#EDE0C6">ml-inference</text>
<text x="50.100" y="33.584" fill="#9B7ACC">mcp_a8f2</text>
<text x="1.002" y="35.755" fill="#5F5340">└</text>
<text x="3.006" y="35.755" fill="#9A8B6E">&quot;deletion requires human confirmation&quot;</text>
<text x="1.002" y="37.926" fill="#5F5340">│</text>
<text x="1.002" y="39.663" fill="#5F5340">╎</text>
<text x="3.006" y="39.663" fill="#9A8B6E">41 more receipts</text>
<rect x="55.110" y="9.552" width="24.048" height="31.479" fill="#16120D"/>
<text x="56.112" y="11.874" fill="#9A8B6E" font-weight="700">RECEIPT DETAIL</text>
<rect x="0" y="11.940" width="80" height="0.15" fill="#2E2820"/>
<text x="56.112" y="14.262" fill="#9A8B6E">Action</text>
<text x="56.112" y="15.781" fill="#5FAD56">start_project</text>
<text x="56.112" y="17.953" fill="#9A8B6E">Target</text>
<text x="56.112" y="19.472" fill="#EDE0C6">data-pipeline</text>
<text x="56.112" y="21.643" fill="#9A8B6E">Actor</text>
<text x="56.112" y="23.163" fill="#9B7ACC">mcp_session_a8f2</text>
<text x="56.112" y="25.334" fill="#9A8B6E">Timestamp</text>
<text x="56.112" y="26.854" fill="#C3B492">2026-07-15 09:41:23</text>
<text x="56.112" y="29.025" fill="#9A8B6E">Result</text>
<text x="56.112" y="30.544" fill="#5FAD56">permitted</text>
<text x="56.112" y="32.715" fill="#9A8B6E">Receipt Hash</text>
<text x="56.112" y="34.235" fill="#C3B492">a8f2c3d1e5b7...</text>
<text x="56.112" y="36.406" fill="#9A8B6E">Previous Hash</text>
<text x="56.112" y="37.926" fill="#C3B492">7b4e9f2a1c83...</text>
<rect x="55.110" y="38.427" width="24.048" height="2.171" fill="#1E1A14"/>
<text x="56.112" y="40.314" fill="#E8AE52">↵</text>
<text x="58.116" y="40.314" fill="#C3B492">inspect</text>
<text x="67.134" y="40.314" fill="#E8AE52">y</text>
<text x="69.138" y="40.314" fill="#C3B492">sync</text>
<text x="75.150" y="40.314" fill="#E8AE52">v</text>
<text x="77.154" y="40.314" fill="#C3B492">vfy</text>
<rect x="0.000" y="47.762" width="80.160" height="2.171" fill="#16120D"/>
<rect x="0" y="47.762" width="80" height="0.15" fill="#2E2820"/>
<text x="1.002" y="49.432" fill="#E8AE52">f</text>
<text x="3.006" y="49.432" fill="#C3B492">follow</text>
<text x="11.022" y="49.432" fill="#E8AE52">v</text>
<text x="13.026" y="49.432" fill="#C3B492">verify</text>
<text x="21.042" y="49.432" fill="#E8AE52">y</text>
<text x="23.046" y="49.432" fill="#C3B492">sync</text>
<text x="29.058" y="49.432" fill="#E8AE52">↵</text>
<text x="31.062" y="49.432" fill="#C3B492">inspect</text>
<text x="40.080" y="49.432" fill="#E8AE52">:</text>
<text x="42.084" y="49.432" fill="#C3B492">palette</text>
<text x="51.102" y="49.432" fill="#E8AE52">?</text>
<text x="53.106" y="49.432" fill="#C3B492">help</text>
<rect x="0.000" y="49.933" width="80.160" height="2.171" fill="#1E1A14"/>
<text x="1.002" y="51.603" fill="#5F5340">◈ Receipts  ·  47 total  ·  chain intact  ·  synced</text>
<text x="77.154" y="51.603" fill="#5F5340">❖</text>
</svg>
<svg x="400">
<rect width="80" height="52.104" fill="#0C0A07"/>
<rect x="0.000" y="0.000" width="80.160" height="52.104" fill="#0C0A07"/>
<rect x="0.000" y="0.000" width="80.160" height="2.822" fill="#16120D"/>
<rect x="0" y="2.822" width="80" height="0.15" fill="#2E2820"/>
<text x="1.002" y="1.670" fill="#E8AE52">❖</text>
<text x="3.006" y="1.670" fill="#F6C56E" font-weight="700">SESHAT</text>
<text x="12.024" y="1.670" fill="#9A8B6E">◆ Projects</text>
<text x="24.048" y="1.670" fill="#EDE0C6" font-weight="700">≡ Agreements</text>
<rect x="24.048" y="2.714" width="12.024" height="0.25" fill="#E8AE52"/>
<text x="38.076" y="1.670" fill="#9A8B6E">◈ Receipts</text>
<text x="49.098" y="1.670" fill="#9A8B6E">◇ Invariant</text>
<text x="61.122" y="1.670" fill="#9A8B6E">⊘ Revocations</text>
<text x="72.144" y="1.670" fill="#9A8B6E">⌸ Vault</text>
<rect x="1.002" y="3.256" width="78.156" height="2.605" fill="#16120D"/>
<text x="2.004" y="5.361" fill="#C3B492">~/.seshat/agreement.limn</text>
<text x="40.080" y="5.361" fill="#EDE0C6">6 rules</text>
<text x="50.100" y="5.361" fill="#9A8B6E">last modified: 2026-07-14</text>
<text x="2.004" y="8.617" fill="#9A8B6E" font-weight="700">  Effect   Actor       Action            Scope</text>
<rect x="0" y="9.118" width="80" height="0.15" fill="#2E2820"/>
<rect x="1.002" y="9.552" width="78.156" height="2.171" fill="#262117"/>
<text x="2.004" y="11.439" fill="#5FAD56" font-weight="700">permit</text>
<text x="11.022" y="11.439" fill="#E8AE52">any agent</text>
<text x="23.046" y="11.439" fill="#5AADA8">start_project</text>
<text x="40.080" y="11.439" fill="#9A8B6E">any scope</text>
<rect x="1.002" y="11.723" width="78.156" height="0.15" fill="#E8AE52" opacity="0.5"/>
<text x="2.004" y="14.262" fill="#5FAD56" font-weight="700">permit</text>
<text x="11.022" y="14.262" fill="#E8AE52">any agent</text>
<text x="23.046" y="14.262" fill="#5AADA8">stop_project</text>
<text x="40.080" y="14.262" fill="#9A8B6E">any scope</text>
<text x="2.004" y="16.867" fill="#5FAD56" font-weight="700">permit</text>
<text x="11.022" y="16.867" fill="#E8AE52">any agent</text>
<text x="23.046" y="16.867" fill="#5AADA8">read_logs</text>
<text x="40.080" y="16.867" fill="#9A8B6E">any scope</text>
<text x="2.004" y="19.472" fill="#C45B4A" font-weight="700">forbid</text>
<text x="11.022" y="19.472" fill="#E8AE52">any agent</text>
<text x="23.046" y="19.472" fill="#5AADA8">set_secret</text>
<text x="40.080" y="19.472" fill="#9A8B6E">any scope</text>
<text x="4.008" y="21.643" fill="#9A8B6E">&quot;agents cannot modify secrets&quot;</text>
<text x="2.004" y="24.248" fill="#C45B4A" font-weight="700">forbid</text>
<text x="11.022" y="24.248" fill="#E8AE52">any agent</text>
<text x="23.046" y="24.248" fill="#5AADA8">delete_project</text>
<text x="40.080" y="24.248" fill="#9A8B6E">any scope</text>
<text x="4.008" y="26.419" fill="#9A8B6E">&quot;deletion requires human confirmation&quot;</text>
<text x="2.004" y="29.025" fill="#5FAD56" font-weight="700">permit</text>
<text x="11.022" y="29.025" fill="#E8AE52">any agent</text>
<text x="23.046" y="29.025" fill="#5AADA8">register_project</text>
<text x="40.080" y="29.025" fill="#9A8B6E">any scope</text>
<rect x="1.002" y="32.565" width="78.156" height="6.513" fill="#16120D"/>
<text x="2.004" y="34.669" fill="#9A8B6E" font-weight="700">DRY RUN</text>
<rect x="0" y="34.736" width="80" height="0.15" fill="#2E2820"/>
<text x="2.004" y="37.057" fill="#C3B492">▸ start_project → data-pipeline</text>
<text x="40.080" y="37.057" fill="#5FAD56" font-weight="700">✓ permitted</text>
<text x="2.004" y="39.228" fill="#C3B492">▸ set_secret → API_KEY</text>
<text x="40.080" y="39.228" fill="#C45B4A">✗ denied  &quot;agents cannot modify secrets&quot;</text>
<rect x="0.000" y="47.762" width="80.160" height="2.171" fill="#16120D"/>
<rect x="0" y="47.762" width="80" height="0.15" fill="#2E2820"/>
<text x="1.002" y="49.432" fill="#E8AE52">d</text>
<text x="3.006" y="49.432" fill="#C3B492">dry-run</text>
<text x="12.024" y="49.432" fill="#E8AE52">e</text>
<text x="14.028" y="49.432" fill="#C3B492">edit</text>
<text x="20.040" y="49.432" fill="#E8AE52">r</text>
<text x="22.044" y="49.432" fill="#C3B492">reload</text>
<text x="30.060" y="49.432" fill="#E8AE52">:</text>
<text x="32.064" y="49.432" fill="#C3B492">palette</text>
<text x="41.082" y="49.432" fill="#E8AE52">?</text>
<text x="43.086" y="49.432" fill="#C3B492">help</text>
<rect x="0.000" y="49.933" width="80.160" height="2.171" fill="#1E1A14"/>
<text x="1.002" y="51.603" fill="#5F5340">≡ Agreements  ·  6 rules  ·  4 permit  ·  2 forbid</text>
<text x="77.154" y="51.603" fill="#5F5340">❖</text>
</svg>
<svg x="480">
<rect width="80" height="52.104" fill="#0C0A07"/>
<rect x="0.000" y="0.000" width="80.160" height="52.104" fill="#0C0A07"/>
<rect x="0.000" y="0.000" width="80.160" height="2.822" fill="#16120D"/>
<rect x="0" y="2.822" width="80" height="0.15" fill="#2E2820"/>
<text x="1.002" y="1.670" fill="#E8AE52">❖</text>
<text x="3.006" y="1.670" fill="#F6C56E" font-weight="700">SESHAT</text>
<text x="12.024" y="1.670" fill="#9A8B6E">◆ Projects</text>
<text x="24.048" y="1.670" fill="#EDE0C6" font-weight="700">≡ Agreements</text>
<rect x="24.048" y="2.714" width="12.024" height="0.25" fill="#E8AE52"/>
<text x="38.076" y="1.670" fill="#9A8B6E">◈ Receipts</text>
<text x="49.098" y="1.670" fill="#9A8B6E">◇ Invariant</text>
<text x="61.122" y="1.670" fill="#9A8B6E">⊘ Revocations</text>
<text x="72.144" y="1.670" fill="#9A8B6E">⌸ Vault</text>
<rect x="1.002" y="3.256" width="78.156" height="2.605" fill="#16120D"/>
<text x="2.004" y="5.361" fill="#C3B492">~/.seshat/agreement.limn</text>
<text x="40.080" y="5.361" fill="#EDE0C6">6 rules</text>
<text x="50.100" y="5.361" fill="#9A8B6E">last modified: 2026-07-14</text>
<text x="2.004" y="8.617" fill="#9A8B6E" font-weight="700">  Effect   Actor       Action            Scope</text>
<rect x="0" y="9.118" width="80" height="0.15" fill="#2E2820"/>
<rect x="1.002" y="9.552" width="78.156" height="2.171" fill="#262117"/>
<text x="2.004" y="11.439" fill="#5FAD56" font-weight="700">permit</text>
<text x="11.022" y="11.439" fill="#E8AE52">any agent</text>
<text x="23.046" y="11.439" fill="#5AADA8">start_project</text>
<text x="40.080" y="11.439" fill="#9A8B6E">any scope</text>
<rect x="1.002" y="11.723" width="78.156" height="0.15" fill="#E8AE52" opacity="0.5"/>
<text x="2.004" y="14.262" fill="#5FAD56" font-weight="700">permit</text>
<text x="11.022" y="14.262" fill="#E8AE52">any agent</text>
<text x="23.046" y="14.262" fill="#5AADA8">stop_project</text>
<text x="40.080" y="14.262" fill="#9A8B6E">any scope</text>
<text x="2.004" y="16.867" fill="#5FAD56" font-weight="700">permit</text>
<text x="11.022" y="16.867" fill="#E8AE52">any agent</text>
<text x="23.046" y="16.867" fill="#5AADA8">read_logs</text>
<text x="40.080" y="16.867" fill="#9A8B6E">any scope</text>
<text x="2.004" y="19.472" fill="#C45B4A" font-weight="700">forbid</text>
<text x="11.022" y="19.472" fill="#E8AE52">any agent</text>
<text x="23.046" y="19.472" fill="#5AADA8">set_secret</text>
<text x="40.080" y="19.472" fill="#9A8B6E">any scope</text>
<text x="4.008" y="21.643" fill="#9A8B6E">&quot;agents cannot modify secrets&quot;</text>
<text x="2.004" y="24.248" fill="#C45B4A" font-weight="700">forbid</text>
<text x="11.022" y="24.248" fill="#E8AE52">any agent</text>
<text x="23.046" y="24.248" fill="#5AADA8">delete_project</text>
<text x="40.080" y="24.248" fill="#9A8B6E">any scope</text>
<text x="4.008" y="26.419" fill="#9A8B6E">&quot;deletion requires human confirmation&quot;</text>
<text x="2.004" y="29.025" fill="#5FAD56" font-weight="700">permit</text>
<text x="11.022" y="29.025" fill="#E8AE52">any agent</text>
<text x="23.046" y="29.025" fill="#5AADA8">register_project</text>
<text x="40.080" y="29.025" fill="#9A8B6E">any scope</text>
<rect x="1.002" y="32.565" width="78.156" height="6.513" fill="#16120D"/>
<text x="2.004" y="34.669" fill="#9A8B6E" font-weight="700">DRY RUN</text>
<rect x="0" y="34.736" width="80" height="0.15" fill="#2E2820"/>
<text x="2.004" y="37.057" fill="#C3B492">▸ start_project → data-pipeline</text>
<text x="40.080" y="37.057" fill="#5FAD56" font-weight="700">✓ permitted</text>
<text x="2.004" y="39.228" fill="#C3B492">▸ set_secret → API_KEY</text>
<text x="40.080" y="39.228" fill="#C45B4A">✗ denied  &quot;agents cannot modify secrets&quot;</text>
<rect x="0.000" y="47.762" width="80.160" height="2.171" fill="#16120D"/>
<rect x="0" y="47.762" width="80" height="0.15" fill="#2E2820"/>
<text x="1.002" y="49.432" fill="#E8AE52">d</text>
<text x="3.006" y="49.432" fill="#C3B492">dry-run</text>
<text x="12.024" y="49.432" fill="#E8AE52">e</text>
<text x="14.028" y="49.432" fill="#C3B492">edit</text>
<text x="20.040" y="49.432" fill="#E8AE52">r</text>
<text x="22.044" y="49.432" fill="#C3B492">reload</text>
<text x="30.060" y="49.432" fill="#E8AE52">:</text>
<text x="32.064" y="49.432" fill="#C3B492">palette</text>
<text x="41.082" y="49.432" fill="#E8AE52">?</text>
<text x="43.086" y="49.432" fill="#C3B492">help</text>
<rect x="0.000" y="49.933" width="80.160" height="2.171" fill="#1E1A14"/>
<text x="1.002" y="51.603" fill="#5F5340">≡ Agreements  ·  6 rules  ·  4 permit  ·  2 forbid</text>
<text x="77.154" y="51.603" fill="#5F5340">❖</text>
</svg>
<svg x="560">
<rect width="80" height="52.104" fill="#0C0A07"/>
<rect x="0.000" y="0.000" width="80.160" height="52.104" fill="#0C0A07"/>
<rect x="0.000" y="0.000" width="80.160" height="2.822" fill="#16120D"/>
<rect x="0" y="2.822" width="80" height="0.15" fill="#2E2820"/>
<text x="1.002" y="1.670" fill="#E8AE52">❖</text>
<text x="3.006" y="1.670" fill="#F6C56E" font-weight="700">SESHAT</text>
<text x="12.024" y="1.670" fill="#EDE0C6" font-weight="700">◆ Projects</text>
<rect x="12.024" y="2.714" width="10.020" height="0.25" fill="#E8AE52"/>
<text x="24.048" y="1.670" fill="#9A8B6E">≡ Agreements</text>
<text x="38.076" y="1.670" fill="#9A8B6E">◈ Receipts</text>
<text x="49.098" y="1.670" fill="#9A8B6E">◇ Invariant</text>
<text x="61.122" y="1.670" fill="#9A8B6E">⊘ Revocations</text>
<text x="72.144" y="1.670" fill="#9A8B6E">⌸ Vault</text>
<rect x="1.002" y="3.256" width="78.156" height="2.605" fill="#16120D"/>
<text x="2.004" y="5.361" fill="#9A8B6E">Total: </text>
<text x="9.018" y="5.361" fill="#EDE0C6">5</text>
<text x="14.028" y="5.361" fill="#9A8B6E">Running: </text>
<text x="23.046" y="5.361" fill="#5FAD56">3</text>
<text x="28.056" y="5.361" fill="#9A8B6E">Stopped: </text>
<text x="37.074" y="5.361" fill="#9A8B6E">2</text>
<text x="55.110" y="5.361" fill="#5F5340">▁▂▃▅▇▆▄▃▂▅▇▃▂▁▃▅▇▆▃▁</text>
<text x="2.004" y="8.617" fill="#9A8B6E" font-weight="700">  Name                Port   Status    Started by         Dir</text>
<rect x="0" y="9.118" width="80" height="0.15" fill="#2E2820"/>
<rect x="1.002" y="9.552" width="52.104" height="2.171" fill="#262117"/>
<text x="2.004" y="11.439" fill="#5FAD56">●</text>
<text x="4.008" y="11.439" fill="#EDE0C6" font-weight="700">api-gateway</text>
<text x="22.044" y="11.439" fill="#5AADA8">3000</text>
<text x="29.058" y="11.439" fill="#5FAD56">running</text>
<text x="39.078" y="11.439" fill="#9B7ACC">mcp_session_a8f2</text>
<text x="58.116" y="11.439" fill="#9A8B6E">~/api-gateway</text>
<rect x="1.002" y="11.723" width="52.104" height="0.15" fill="#E8AE52" opacity="0.5"/>
<text x="2.004" y="14.045" fill="#5FAD56">●</text>
<text x="4.008" y="14.045" fill="#EDE0C6">auth-service</text>
<text x="22.044" y="14.045" fill="#5AADA8">3100</text>
<text x="29.058" y="14.045" fill="#5FAD56">running</text>
<text x="39.078" y="14.045" fill="#9A8B6E">dashboard</text>
<text x="58.116" y="14.045" fill="#9A8B6E">~/auth-service</text>
<text x="2.004" y="16.650" fill="#9A8B6E">○</text>
<text x="4.008" y="16.650" fill="#C3B492">data-pipeline</text>
<text x="22.044" y="16.650" fill="#5AADA8">4200</text>
<text x="29.058" y="16.650" fill="#9A8B6E">stopped</text>
<text x="39.078" y="16.650" fill="#5F5340">—</text>
<text x="58.116" y="16.650" fill="#9A8B6E">~/data-pipeline</text>
<text x="2.004" y="19.255" fill="#9A8B6E">○</text>
<text x="4.008" y="19.255" fill="#C3B492">ml-inference</text>
<text x="22.044" y="19.255" fill="#5AADA8">5000</text>
<text x="29.058" y="19.255" fill="#9A8B6E">stopped</text>
<text x="39.078" y="19.255" fill="#5F5340">—</text>
<text x="58.116" y="19.255" fill="#9A8B6E">~/ml-inference</text>
<text x="2.004" y="21.860" fill="#5FAD56">●</text>
<text x="4.008" y="21.860" fill="#EDE0C6">notification-svc</text>
<text x="22.044" y="21.860" fill="#5AADA8">5100</text>
<text x="29.058" y="21.860" fill="#5FAD56">running</text>
<text x="39.078" y="21.860" fill="#9A8B6E">cli_user</text>
<text x="58.116" y="21.860" fill="#9A8B6E">~/notif-svc</text>
<rect x="55.110" y="9.552" width="24.048" height="30.394" fill="#16120D"/>
<text x="56.112" y="11.874" fill="#9A8B6E" font-weight="700">PROJECT DETAIL</text>
<rect x="0" y="11.940" width="80" height="0.15" fill="#2E2820"/>
<text x="56.112" y="14.262" fill="#9A8B6E">Name</text>
<text x="56.112" y="15.999" fill="#EDE0C6">api-gateway</text>
<text x="56.112" y="18.170" fill="#9A8B6E">Port</text>
<text x="56.112" y="19.906" fill="#5AADA8">3000</text>
<text x="56.112" y="22.077" fill="#9A8B6E">Status</text>
<text x="56.112" y="23.814" fill="#5FAD56">running</text>
<text x="56.112" y="25.985" fill="#9A8B6E">Started by</text>
<text x="56.112" y="27.722" fill="#9B7ACC">mcp_session_a8f2</text>
<text x="56.112" y="29.893" fill="#9A8B6E">PID</text>
<text x="56.112" y="31.630" fill="#C3B492">41892</text>
<rect x="55.110" y="34.736" width="24.048" height="2.171" fill="#1E1A14"/>
<text x="56.112" y="36.623" fill="#E8AE52">x</text>
<text x="58.116" y="36.623" fill="#C3B492">stop</text>
<text x="64.128" y="36.623" fill="#E8AE52">o</text>
<text x="66.132" y="36.623" fill="#C3B492">logs</text>
<text x="72.144" y="36.623" fill="#E8AE52">↵</text>
<text x="74.148" y="36.623" fill="#C3B492">open</text>
<rect x="0.000" y="47.762" width="80.160" height="2.171" fill="#16120D"/>
<rect x="0" y="47.762" width="80" height="0.15" fill="#2E2820"/>
<text x="1.002" y="49.432" fill="#E8AE52">s</text>
<text x="3.006" y="49.432" fill="#C3B492">start</text>
<text x="10.020" y="49.432" fill="#E8AE52">x</text>
<text x="12.024" y="49.432" fill="#C3B492">stop</text>
<text x="18.036" y="49.432" fill="#E8AE52">a</text>
<text x="20.040" y="49.432" fill="#C3B492">start-group</text>
<text x="33.066" y="49.432" fill="#E8AE52">o</text>
<text x="35.070" y="49.432" fill="#C3B492">logs</text>
<text x="41.082" y="49.432" fill="#E8AE52">n</text>
<text x="43.086" y="49.432" fill="#C3B492">register</text>
<text x="53.106" y="49.432" fill="#E8AE52">:</text>
<text x="55.110" y="49.432" fill="#C3B492">palette</text>
<text x="64.128" y="49.432" fill="#E8AE52">?</text>
<text x="66.132" y="49.432" fill="#C3B492">help</text>
<rect x="0.000" y="49.933" width="80.160" height="2.171" fill="#1E1A14"/>
<text x="1.002" y="51.603" fill="#5F5340">◆ Projects  ·  5 registered  ·  3 running</text>
<text x="77.154" y="51.603" fill="#5F5340">❖</text>
</svg>
</svg>
</g>
</svg>
</svg>