<svg xmlns="http://www.w3.org/2000/svg" xmlns:xlink="http://www.w3.org/1999/xlink" width="840" height="581">
<rect width="840" height="581" rx="8" ry="8" fill="#1E1A14"/>
<svg y="0%" x="0%">
  <circle cx="20" cy="18" r="6" fill="#ff5f58"/>
  <circle cx="40" cy="18" r="6" fill="#ffbd2e"/>
  <circle cx="60" cy="18" r="6" fill="#18c132"/>
  <text x="420" y="22" text-anchor="middle" fill="#8A7D65" font-family="Monaco,Consolas,Menlo,monospace" font-size="12">seshat</text>
</svg>
<svg height="521.0" viewBox="0 0 80 52.104" width="800" x="15" y="46">
<style>
@keyframes s{0.000%{transform:translateX(0px)}6.073%{transform:translateX(-80px)}9.312%{transform:translateX(-160px)}25.506%{transform:translateX(-240px)}28.745%{transform:translateX(-320px)}48.988%{transform:translateX(-400px)}65.182%{transform:translateX(-480px)}68.421%{transform:translateX(-560px)}84.615%{transform:translateX(-640px)}87.854%{transform:translateX(-720px)}100%{transform:translateX(-720px)}}
text{white-space:pre;font-family:Monaco,Consolas,Menlo,'Bitstream Vera Sans Mono',monospace;font-size:1.67px}
</style>
<g style="animation-duration:24.7s;animation-iteration-count:infinite;animation-name:s;animation-timing-function:steps(1,end)">
<svg width="800">
<svg x="0">
<rect width="80" height="52.104" fill="#0C0A07"/>
<text x="0.000" y="1.670" fill="#5AADA8">user@dev</text>
<text x="9.018" y="1.670" fill="#5C5242">~/projects</text>
<text x="20.040" y="1.670" fill="#8A7D65">$</text>
<rect x="22.044" y="0.000" width="1.002" height="2.171" fill="#E8AE52" opacity="0.8"/>
</svg>
<svg x="80">
<rect width="80" height="52.104" fill="#0C0A07"/>
<text x="0.000" y="1.670" fill="#5AADA8">user@dev</text>
<text x="9.018" y="1.670" fill="#5C5242">~/projects</text>
<text x="20.040" y="1.670" fill="#8A7D65">$</text>
<text x="22.044" y="1.670" fill="#D4C5A9">seshat status</text>
<rect x="36.072" y="0.000" width="1.002" height="2.171" fill="#E8AE52" opacity="0.8"/>
</svg>
<svg x="160">
<rect width="80" height="52.104" fill="#0C0A07"/>
<text x="0.000" y="1.670" fill="#5AADA8">user@dev</text>
<text x="9.018" y="1.670" fill="#5C5242">~/projects</text>
<text x="20.040" y="1.670" fill="#8A7D65">$</text>
<text x="22.044" y="1.670" fill="#D4C5A9">seshat status</text>
<text x="0.000" y="6.012" fill="#E8AE52" font-weight="700">  Name                  Port   Status    Started by           Directory</text>
<text x="2.004" y="8.183" fill="#5FAD56">●</text>
<text x="4.008" y="8.183" fill="#D4C5A9" font-weight="700">api-gateway</text>
<text x="26.052" y="8.183" fill="#5AADA8">3000</text>
<text x="33.066" y="8.183" fill="#5FAD56">running</text>
<text x="42.084" y="8.183" fill="#9B7ACC">mcp_session_a8f2</text>
<text x="63.126" y="8.183" fill="#8A7D65">~/api-gateway</text>
<text x="2.004" y="10.354" fill="#5FAD56">●</text>
<text x="4.008" y="10.354" fill="#D4C5A9" font-weight="700">auth-service</text>
<text x="26.052" y="10.354" fill="#5AADA8">3100</text>
<text x="33.066" y="10.354" fill="#5FAD56">running</text>
<text x="42.084" y="10.354" fill="#8A7D65">dashboard</text>
<text x="63.126" y="10.354" fill="#8A7D65">~/auth-service</text>
<text x="2.004" y="12.525" fill="#8A7D65">○</text>
<text x="4.008" y="12.525" fill="#D4C5A9">data-pipeline</text>
<text x="26.052" y="12.525" fill="#5AADA8">4200</text>
<text x="33.066" y="12.525" fill="#8A7D65">stopped</text>
<text x="42.084" y="12.525" fill="#5C5242">—</text>
<text x="63.126" y="12.525" fill="#8A7D65">~/data-pipeline</text>
<text x="2.004" y="14.696" fill="#8A7D65">○</text>
<text x="4.008" y="14.696" fill="#D4C5A9">ml-inference</text>
<text x="26.052" y="14.696" fill="#5AADA8">5000</text>
<text x="33.066" y="14.696" fill="#8A7D65">stopped</text>
<text x="42.084" y="14.696" fill="#5C5242">—</text>
<text x="63.126" y="14.696" fill="#8A7D65">~/ml-inference</text>
<text x="2.004" y="16.867" fill="#5FAD56">●</text>
<text x="4.008" y="16.867" fill="#D4C5A9" font-weight="700">notification-svc</text>
<text x="26.052" y="16.867" fill="#5AADA8">5100</text>
<text x="33.066" y="16.867" fill="#5FAD56">running</text>
<text x="42.084" y="16.867" fill="#8A7D65">cli_user</text>
<text x="63.126" y="16.867" fill="#8A7D65">~/notif-svc</text>
<text x="0.000" y="21.209" fill="#5AADA8">user@dev</text>
<text x="9.018" y="21.209" fill="#5C5242">~/projects</text>
<text x="20.040" y="21.209" fill="#8A7D65">$</text>
<rect x="22.044" y="19.539" width="1.002" height="2.171" fill="#E8AE52" opacity="0.8"/>
</svg>
<svg x="240">
<rect width="80" height="52.104" fill="#0C0A07"/>
<text x="0.000" y="1.670" fill="#5AADA8">user@dev</text>
<text x="9.018" y="1.670" fill="#5C5242">~/projects</text>
<text x="20.040" y="1.670" fill="#8A7D65">$</text>
<text x="22.044" y="1.670" fill="#D4C5A9">seshat status</text>
<text x="0.000" y="6.012" fill="#E8AE52" font-weight="700">  Name                  Port   Status    Started by           Directory</text>
<text x="2.004" y="8.183" fill="#5FAD56">●</text>
<text x="4.008" y="8.183" fill="#D4C5A9" font-weight="700">api-gateway</text>
<text x="26.052" y="8.183" fill="#5AADA8">3000</text>
<text x="33.066" y="8.183" fill="#5FAD56">running</text>
<text x="42.084" y="8.183" fill="#9B7ACC">mcp_session_a8f2</text>
<text x="63.126" y="8.183" fill="#8A7D65">~/api-gateway</text>
<text x="2.004" y="10.354" fill="#5FAD56">●</text>
<text x="4.008" y="10.354" fill="#D4C5A9" font-weight="700">auth-service</text>
<text x="26.052" y="10.354" fill="#5AADA8">3100</text>
<text x="33.066" y="10.354" fill="#5FAD56">running</text>
<text x="42.084" y="10.354" fill="#8A7D65">dashboard</text>
<text x="63.126" y="10.354" fill="#8A7D65">~/auth-service</text>
<text x="2.004" y="12.525" fill="#8A7D65">○</text>
<text x="4.008" y="12.525" fill="#D4C5A9">data-pipeline</text>
<text x="26.052" y="12.525" fill="#5AADA8">4200</text>
<text x="33.066" y="12.525" fill="#8A7D65">stopped</text>
<text x="42.084" y="12.525" fill="#5C5242">—</text>
<text x="63.126" y="12.525" fill="#8A7D65">~/data-pipeline</text>
<text x="2.004" y="14.696" fill="#8A7D65">○</text>
<text x="4.008" y="14.696" fill="#D4C5A9">ml-inference</text>
<text x="26.052" y="14.696" fill="#5AADA8">5000</text>
<text x="33.066" y="14.696" fill="#8A7D65">stopped</text>
<text x="42.084" y="14.696" fill="#5C5242">—</text>
<text x="63.126" y="14.696" fill="#8A7D65">~/ml-inference</text>
<text x="2.004" y="16.867" fill="#5FAD56">●</text>
<text x="4.008" y="16.867" fill="#D4C5A9" font-weight="700">notification-svc</text>
<text x="26.052" y="16.867" fill="#5AADA8">5100</text>
<text x="33.066" y="16.867" fill="#5FAD56">running</text>
<text x="42.084" y="16.867" fill="#8A7D65">cli_user</text>
<text x="63.126" y="16.867" fill="#8A7D65">~/notif-svc</text>
<text x="0.000" y="21.209" fill="#5AADA8">user@dev</text>
<text x="9.018" y="21.209" fill="#5C5242">~/projects</text>
<text x="20.040" y="21.209" fill="#8A7D65">$</text>
<text x="22.044" y="21.209" fill="#D4C5A9">seshat agreement show</text>
<rect x="43.086" y="19.539" width="1.002" height="2.171" fill="#E8AE52" opacity="0.8"/>
</svg>
<svg x="320">
<rect width="80" height="52.104" fill="#0C0A07"/>
<text x="0.000" y="1.670" fill="#5AADA8">user@dev</text>
<text x="9.018" y="1.670" fill="#5C5242">~/projects</text>
<text x="20.040" y="1.670" fill="#8A7D65">$</text>
<text x="22.044" y="1.670" fill="#D4C5A9">seshat status</text>
<text x="0.000" y="6.012" fill="#E8AE52" font-weight="700">  Name                  Port   Status    Started by           Directory</text>
<text x="2.004" y="8.183" fill="#5FAD56">●</text>
<text x="4.008" y="8.183" fill="#D4C5A9" font-weight="700">api-gateway</text>
<text x="26.052" y="8.183" fill="#5AADA8">3000</text>
<text x="33.066" y="8.183" fill="#5FAD56">running</text>
<text x="42.084" y="8.183" fill="#9B7ACC">mcp_session_a8f2</text>
<text x="63.126" y="8.183" fill="#8A7D65">~/api-gateway</text>
<text x="2.004" y="10.354" fill="#5FAD56">●</text>
<text x="4.008" y="10.354" fill="#D4C5A9" font-weight="700">auth-service</text>
<text x="26.052" y="10.354" fill="#5AADA8">3100</text>
<text x="33.066" y="10.354" fill="#5FAD56">running</text>
<text x="42.084" y="10.354" fill="#8A7D65">dashboard</text>
<text x="63.126" y="10.354" fill="#8A7D65">~/auth-service</text>
<text x="2.004" y="12.525" fill="#8A7D65">○</text>
<text x="4.008" y="12.525" fill="#D4C5A9">data-pipeline</text>
<text x="26.052" y="12.525" fill="#5AADA8">4200</text>
<text x="33.066" y="12.525" fill="#8A7D65">stopped</text>
<text x="42.084" y="12.525" fill="#5C5242">—</text>
<text x="63.126" y="12.525" fill="#8A7D65">~/data-pipeline</text>
<text x="2.004" y="14.696" fill="#8A7D65">○</text>
<text x="4.008" y="14.696" fill="#D4C5A9">ml-inference</text>
<text x="26.052" y="14.696" fill="#5AADA8">5000</text>
<text x="33.066" y="14.696" fill="#8A7D65">stopped</text>
<text x="42.084" y="14.696" fill="#5C5242">—</text>
<text x="63.126" y="14.696" fill="#8A7D65">~/ml-inference</text>
<text x="2.004" y="16.867" fill="#5FAD56">●</text>
<text x="4.008" y="16.867" fill="#D4C5A9" font-weight="700">notification-svc</text>
<text x="26.052" y="16.867" fill="#5AADA8">5100</text>
<text x="33.066" y="16.867" fill="#5FAD56">running</text>
<text x="42.084" y="16.867" fill="#8A7D65">cli_user</text>
<text x="63.126" y="16.867" fill="#8A7D65">~/notif-svc</text>
<text x="0.000" y="21.209" fill="#5AADA8">user@dev</text>
<text x="9.018" y="21.209" fill="#5C5242">~/projects</text>
<text x="20.040" y="21.209" fill="#8A7D65">$</text>
<text x="22.044" y="21.209" fill="#D4C5A9">seshat agreement show</text>
<text x="2.004" y="25.551" fill="#5C5242"># ~/.seshat/agreement.limn</text>
<text x="2.004" y="27.722" fill="#5FAD56" font-weight="700">permit</text>
<text x="9.018" y="27.722" fill="#E8AE52">any agent</text>
<text x="19.038" y="27.722" fill="#D4C5A9">to</text>
<text x="22.044" y="27.722" fill="#5AADA8">start_project</text>
<text x="36.072" y="27.722" fill="#D4C5A9">on</text>
<text x="39.078" y="27.722" fill="#8A7D65">any scope</text>
<text x="2.004" y="29.893" fill="#5FAD56" font-weight="700">permit</text>
<text x="9.018" y="29.893" fill="#E8AE52">any agent</text>
<text x="19.038" y="29.893" fill="#D4C5A9">to</text>
<text x="22.044" y="29.893" fill="#5AADA8">stop_project</text>
<text x="36.072" y="29.893" fill="#D4C5A9">on</text>
<text x="39.078" y="29.893" fill="#8A7D65">any scope</text>
<text x="2.004" y="32.064" fill="#5FAD56" font-weight="700">permit</text>
<text x="9.018" y="32.064" fill="#E8AE52">any agent</text>
<text x="19.038" y="32.064" fill="#D4C5A9">to</text>
<text x="22.044" y="32.064" fill="#5AADA8">read_logs</text>
<text x="36.072" y="32.064" fill="#D4C5A9">on</text>
<text x="39.078" y="32.064" fill="#8A7D65">any scope</text>
<text x="2.004" y="34.235" fill="#C45B4A" font-weight="700">forbid</text>
<text x="9.018" y="34.235" fill="#E8AE52">any agent</text>
<text x="19.038" y="34.235" fill="#D4C5A9">to</text>
<text x="22.044" y="34.235" fill="#5AADA8">set_secret</text>
<text x="36.072" y="34.235" fill="#D4C5A9">on</text>
<text x="39.078" y="34.235" fill="#8A7D65">any scope</text>
<text x="6.012" y="36.406" fill="#8A7D65">because &quot;agents cannot modify secrets&quot;</text>
<text x="2.004" y="38.577" fill="#C45B4A" font-weight="700">forbid</text>
<text x="9.018" y="38.577" fill="#E8AE52">any agent</text>
<text x="19.038" y="38.577" fill="#D4C5A9">to</text>
<text x="22.044" y="38.577" fill="#5AADA8">delete_project</text>
<text x="36.072" y="38.577" fill="#D4C5A9">on</text>
<text x="39.078" y="38.577" fill="#8A7D65">any scope</text>
<text x="6.012" y="40.748" fill="#8A7D65">because &quot;deletion requires human confirmation&quot;</text>
<text x="0.000" y="45.090" fill="#5AADA8">user@dev</text>
<text x="9.018" y="45.090" fill="#5C5242">~/projects</text>
<text x="20.040" y="45.090" fill="#8A7D65">$</text>
<rect x="22.044" y="43.420" width="1.002" height="2.171" fill="#E8AE52" opacity="0.8"/>
</svg>
<svg x="400">
<rect width="80" height="52.104" fill="#0C0A07"/>
<text x="0.000" y="1.670" fill="#5AADA8">user@dev</text>
<text x="9.018" y="1.670" fill="#5C5242">~/projects</text>
<text x="20.040" y="1.670" fill="#8A7D65">$</text>
<text x="22.044" y="1.670" fill="#D4C5A9">seshat stop auth-service</text>
<text x="2.004" y="6.012" fill="#D4C5A9">auth-service stopped (was PID 41892)</text>
<text x="0.000" y="10.354" fill="#5AADA8">user@dev</text>
<text x="9.018" y="10.354" fill="#5C5242">~/projects</text>
<text x="20.040" y="10.354" fill="#8A7D65">$</text>
<text x="22.044" y="10.354" fill="#5C5242"># Agent requests start_project → data-pipeline</text>
<text x="2.004" y="12.525" fill="#9B7ACC">▸ Agent:</text>
<text x="10.020" y="12.525" fill="#5AADA8">start_project</text>
<text x="24.048" y="12.525" fill="#5C5242">→</text>
<text x="26.052" y="12.525" fill="#D4C5A9">data-pipeline</text>
<text x="2.004" y="14.696" fill="#5FAD56" font-weight="700">✓ permitted</text>
<text x="16.032" y="14.696" fill="#D4C5A9">data-pipeline started on port 4200</text>
<text x="2.004" y="19.038" fill="#9B7ACC">▸ Agent:</text>
<text x="10.020" y="19.038" fill="#5AADA8">set_secret</text>
<text x="24.048" y="19.038" fill="#5C5242">→</text>
<text x="26.052" y="19.038" fill="#D4C5A9">DB_PASSWORD</text>
<text x="2.004" y="21.209" fill="#C45B4A" font-weight="700">✗ denied</text>
<text x="16.032" y="21.209" fill="#8A7D65">&quot;agents cannot modify secrets&quot;</text>
<text x="0.000" y="25.551" fill="#5AADA8">user@dev</text>
<text x="9.018" y="25.551" fill="#5C5242">~/projects</text>
<text x="20.040" y="25.551" fill="#8A7D65">$</text>
<rect x="22.044" y="23.881" width="1.002" height="2.171" fill="#E8AE52" opacity="0.8"/>
</svg>
<svg x="480">
<rect width="80" height="52.104" fill="#0C0A07"/>
<text x="0.000" y="1.670" fill="#5AADA8">user@dev</text>
<text x="9.018" y="1.670" fill="#5C5242">~/projects</text>
<text x="20.040" y="1.670" fill="#8A7D65">$</text>
<text x="22.044" y="1.670" fill="#D4C5A9">seshat stop auth-service</text>
<text x="2.004" y="6.012" fill="#D4C5A9">auth-service stopped (was PID 41892)</text>
<text x="0.000" y="10.354" fill="#5AADA8">user@dev</text>
<text x="9.018" y="10.354" fill="#5C5242">~/projects</text>
<text x="20.040" y="10.354" fill="#8A7D65">$</text>
<text x="22.044" y="10.354" fill="#5C5242"># Agent requests start_project → data-pipeline</text>
<text x="2.004" y="12.525" fill="#9B7ACC">▸ Agent:</text>
<text x="10.020" y="12.525" fill="#5AADA8">start_project</text>
<text x="24.048" y="12.525" fill="#5C5242">→</text>
<text x="26.052" y="12.525" fill="#D4C5A9">data-pipeline</text>
<text x="2.004" y="14.696" fill="#5FAD56" font-weight="700">✓ permitted</text>
<text x="16.032" y="14.696" fill="#D4C5A9">data-pipeline started on port 4200</text>
<text x="2.004" y="19.038" fill="#9B7ACC">▸ Agent:</text>
<text x="10.020" y="19.038" fill="#5AADA8">set_secret</text>
<text x="24.048" y="19.038" fill="#5C5242">→</text>
<text x="26.052" y="19.038" fill="#D4C5A9">DB_PASSWORD</text>
<text x="2.004" y="21.209" fill="#C45B4A" font-weight="700">✗ denied</text>
<text x="16.032" y="21.209" fill="#8A7D65">&quot;agents cannot modify secrets&quot;</text>
<text x="0.000" y="25.551" fill="#5AADA8">user@dev</text>
<text x="9.018" y="25.551" fill="#5C5242">~/projects</text>
<text x="20.040" y="25.551" fill="#8A7D65">$</text>
<text x="22.044" y="25.551" fill="#D4C5A9">seshat receipts --limit 5</text>
<rect x="47.094" y="23.881" width="1.002" height="2.171" fill="#E8AE52" opacity="0.8"/>
</svg>
<svg x="560">
<rect width="80" height="52.104" fill="#0C0A07"/>
<text x="0.000" y="1.670" fill="#5AADA8">user@dev</text>
<text x="9.018" y="1.670" fill="#5C5242">~/projects</text>
<text x="20.040" y="1.670" fill="#8A7D65">$</text>
<text x="22.044" y="1.670" fill="#D4C5A9">seshat stop auth-service</text>
<text x="2.004" y="6.012" fill="#D4C5A9">auth-service stopped (was PID 41892)</text>
<text x="0.000" y="10.354" fill="#5AADA8">user@dev</text>
<text x="9.018" y="10.354" fill="#5C5242">~/projects</text>
<text x="20.040" y="10.354" fill="#8A7D65">$</text>
<text x="22.044" y="10.354" fill="#5C5242"># Agent requests start_project → data-pipeline</text>
<text x="2.004" y="12.525" fill="#9B7ACC">▸ Agent:</text>
<text x="10.020" y="12.525" fill="#5AADA8">start_project</text>
<text x="24.048" y="12.525" fill="#5C5242">→</text>
<text x="26.052" y="12.525" fill="#D4C5A9">data-pipeline</text>
<text x="2.004" y="14.696" fill="#5FAD56" font-weight="700">✓ permitted</text>
<text x="16.032" y="14.696" fill="#D4C5A9">data-pipeline started on port 4200</text>
<text x="2.004" y="19.038" fill="#9B7ACC">▸ Agent:</text>
<text x="10.020" y="19.038" fill="#5AADA8">set_secret</text>
<text x="24.048" y="19.038" fill="#5C5242">→</text>
<text x="26.052" y="19.038" fill="#D4C5A9">DB_PASSWORD</text>
<text x="2.004" y="21.209" fill="#C45B4A" font-weight="700">✗ denied</text>
<text x="16.032" y="21.209" fill="#8A7D65">&quot;agents cannot modify secrets&quot;</text>
<text x="0.000" y="25.551" fill="#5AADA8">user@dev</text>
<text x="9.018" y="25.551" fill="#5C5242">~/projects</text>
<text x="20.040" y="25.551" fill="#8A7D65">$</text>
<text x="22.044" y="25.551" fill="#D4C5A9">seshat receipts --limit 5</text>
<text x="0.000" y="29.893" fill="#E8AE52" font-weight="700">  Time              Action           Target           Actor</text>
<text x="2.004" y="32.064" fill="#8A7D65">2026-07-15 09:41</text>
<text x="20.040" y="32.064" fill="#C45B4A">set_secret</text>
<text x="37.074" y="32.064" fill="#D4C5A9">DB_PASSWORD</text>
<text x="53.106" y="32.064" fill="#9B7ACC">mcp_session_a8f2</text>
<text x="2.004" y="34.235" fill="#8A7D65">2026-07-15 09:41</text>
<text x="20.040" y="34.235" fill="#5FAD56">start_project</text>
<text x="37.074" y="34.235" fill="#D4C5A9">data-pipeline</text>
<text x="53.106" y="34.235" fill="#9B7ACC">mcp_session_a8f2</text>
<text x="2.004" y="36.406" fill="#8A7D65">2026-07-15 09:38</text>
<text x="20.040" y="36.406" fill="#5FAD56">stop_project</text>
<text x="37.074" y="36.406" fill="#D4C5A9">auth-service</text>
<text x="53.106" y="36.406" fill="#8A7D65">cli_user</text>
<text x="2.004" y="38.577" fill="#8A7D65">2026-07-15 09:35</text>
<text x="20.040" y="38.577" fill="#5FAD56">start_project</text>
<text x="37.074" y="38.577" fill="#D4C5A9">auth-service</text>
<text x="53.106" y="38.577" fill="#9B7ACC">mcp_session_a8f2</text>
<text x="2.004" y="40.748" fill="#8A7D65">2026-07-15 09:32</text>
<text x="20.040" y="40.748" fill="#5FAD56">start_project</text>
<text x="37.074" y="40.748" fill="#D4C5A9">api-gateway</text>
<text x="53.106" y="40.748" fill="#8A7D65">cli_user</text>
<text x="0.000" y="45.090" fill="#5AADA8">user@dev</text>
<text x="9.018" y="45.090" fill="#5C5242">~/projects</text>
<text x="20.040" y="45.090" fill="#8A7D65">$</text>
<rect x="22.044" y="43.420" width="1.002" height="2.171" fill="#E8AE52" opacity="0.8"/>
</svg>
<svg x="640">
<rect width="80" height="52.104" fill="#0C0A07"/>
<text x="0.000" y="1.670" fill="#5AADA8">user@dev</text>
<text x="9.018" y="1.670" fill="#5C5242">~/projects</text>
<text x="20.040" y="1.670" fill="#8A7D65">$</text>
<text x="22.044" y="1.670" fill="#D4C5A9">seshat stop auth-service</text>
<text x="2.004" y="6.012" fill="#D4C5A9">auth-service stopped (was PID 41892)</text>
<text x="0.000" y="10.354" fill="#5AADA8">user@dev</text>
<text x="9.018" y="10.354" fill="#5C5242">~/projects</text>
<text x="20.040" y="10.354" fill="#8A7D65">$</text>
<text x="22.044" y="10.354" fill="#5C5242"># Agent requests start_project → data-pipeline</text>
<text x="2.004" y="12.525" fill="#9B7ACC">▸ Agent:</text>
<text x="10.020" y="12.525" fill="#5AADA8">start_project</text>
<text x="24.048" y="12.525" fill="#5C5242">→</text>
<text x="26.052" y="12.525" fill="#D4C5A9">data-pipeline</text>
<text x="2.004" y="14.696" fill="#5FAD56" font-weight="700">✓ permitted</text>
<text x="16.032" y="14.696" fill="#D4C5A9">data-pipeline started on port 4200</text>
<text x="2.004" y="19.038" fill="#9B7ACC">▸ Agent:</text>
<text x="10.020" y="19.038" fill="#5AADA8">set_secret</text>
<text x="24.048" y="19.038" fill="#5C5242">→</text>
<text x="26.052" y="19.038" fill="#D4C5A9">DB_PASSWORD</text>
<text x="2.004" y="21.209" fill="#C45B4A" font-weight="700">✗ denied</text>
<text x="16.032" y="21.209" fill="#8A7D65">&quot;agents cannot modify secrets&quot;</text>
<text x="0.000" y="25.551" fill="#5AADA8">user@dev</text>
<text x="9.018" y="25.551" fill="#5C5242">~/projects</text>
<text x="20.040" y="25.551" fill="#8A7D65">$</text>
<text x="22.044" y="25.551" fill="#D4C5A9">seshat receipts --limit 5</text>
<text x="0.000" y="29.893" fill="#E8AE52" font-weight="700">  Time              Action           Target           Actor</text>
<text x="2.004" y="32.064" fill="#8A7D65">2026-07-15 09:41</text>
<text x="20.040" y="32.064" fill="#C45B4A">set_secret</text>
<text x="37.074" y="32.064" fill="#D4C5A9">DB_PASSWORD</text>
<text x="53.106" y="32.064" fill="#9B7ACC">mcp_session_a8f2</text>
<text x="2.004" y="34.235" fill="#8A7D65">2026-07-15 09:41</text>
<text x="20.040" y="34.235" fill="#5FAD56">start_project</text>
<text x="37.074" y="34.235" fill="#D4C5A9">data-pipeline</text>
<text x="53.106" y="34.235" fill="#9B7ACC">mcp_session_a8f2</text>
<text x="2.004" y="36.406" fill="#8A7D65">2026-07-15 09:38</text>
<text x="20.040" y="36.406" fill="#5FAD56">stop_project</text>
<text x="37.074" y="36.406" fill="#D4C5A9">auth-service</text>
<text x="53.106" y="36.406" fill="#8A7D65">cli_user</text>
<text x="2.004" y="38.577" fill="#8A7D65">2026-07-15 09:35</text>
<text x="20.040" y="38.577" fill="#5FAD56">start_project</text>
<text x="37.074" y="38.577" fill="#D4C5A9">auth-service</text>
<text x="53.106" y="38.577" fill="#9B7ACC">mcp_session_a8f2</text>
<text x="2.004" y="40.748" fill="#8A7D65">2026-07-15 09:32</text>
<text x="20.040" y="40.748" fill="#5FAD56">start_project</text>
<text x="37.074" y="40.748" fill="#D4C5A9">api-gateway</text>
<text x="53.106" y="40.748" fill="#8A7D65">cli_user</text>
<text x="0.000" y="45.090" fill="#5AADA8">user@dev</text>
<text x="9.018" y="45.090" fill="#5C5242">~/projects</text>
<text x="20.040" y="45.090" fill="#8A7D65">$</text>
<text x="22.044" y="45.090" fill="#D4C5A9">seshat receipts verify</text>
<rect x="44.088" y="43.420" width="1.002" height="2.171" fill="#E8AE52" opacity="0.8"/>
</svg>
<svg x="720">
<rect width="80" height="52.104" fill="#0C0A07"/>
<text x="0.000" y="1.670" fill="#5AADA8">user@dev</text>
<text x="9.018" y="1.670" fill="#5C5242">~/projects</text>
<text x="20.040" y="1.670" fill="#8A7D65">$</text>
<text x="22.044" y="1.670" fill="#D4C5A9">seshat stop auth-service</text>
<text x="2.004" y="6.012" fill="#D4C5A9">auth-service stopped (was PID 41892)</text>
<text x="0.000" y="10.354" fill="#5AADA8">user@dev</text>
<text x="9.018" y="10.354" fill="#5C5242">~/projects</text>
<text x="20.040" y="10.354" fill="#8A7D65">$</text>
<text x="22.044" y="10.354" fill="#5C5242"># Agent requests start_project → data-pipeline</text>
<text x="2.004" y="12.525" fill="#9B7ACC">▸ Agent:</text>
<text x="10.020" y="12.525" fill="#5AADA8">start_project</text>
<text x="24.048" y="12.525" fill="#5C5242">→</text>
<text x="26.052" y="12.525" fill="#D4C5A9">data-pipeline</text>
<text x="2.004" y="14.696" fill="#5FAD56" font-weight="700">✓ permitted</text>
<text x="16.032" y="14.696" fill="#D4C5A9">data-pipeline started on port 4200</text>
<text x="2.004" y="19.038" fill="#9B7ACC">▸ Agent:</text>
<text x="10.020" y="19.038" fill="#5AADA8">set_secret</text>
<text x="24.048" y="19.038" fill="#5C5242">→</text>
<text x="26.052" y="19.038" fill="#D4C5A9">DB_PASSWORD</text>
<text x="2.004" y="21.209" fill="#C45B4A" font-weight="700">✗ denied</text>
<text x="16.032" y="21.209" fill="#8A7D65">&quot;agents cannot modify secrets&quot;</text>
<text x="0.000" y="25.551" fill="#5AADA8">user@dev</text>
<text x="9.018" y="25.551" fill="#5C5242">~/projects</text>
<text x="20.040" y="25.551" fill="#8A7D65">$</text>
<text x="22.044" y="25.551" fill="#D4C5A9">seshat receipts --limit 5</text>
<text x="0.000" y="29.893" fill="#E8AE52" font-weight="700">  Time              Action           Target           Actor</text>
<text x="2.004" y="32.064" fill="#8A7D65">2026-07-15 09:41</text>
<text x="20.040" y="32.064" fill="#C45B4A">set_secret</text>
<text x="37.074" y="32.064" fill="#D4C5A9">DB_PASSWORD</text>
<text x="53.106" y="32.064" fill="#9B7ACC">mcp_session_a8f2</text>
<text x="2.004" y="34.235" fill="#8A7D65">2026-07-15 09:41</text>
<text x="20.040" y="34.235" fill="#5FAD56">start_project</text>
<text x="37.074" y="34.235" fill="#D4C5A9">data-pipeline</text>
<text x="53.106" y="34.235" fill="#9B7ACC">mcp_session_a8f2</text>
<text x="2.004" y="36.406" fill="#8A7D65">2026-07-15 09:38</text>
<text x="20.040" y="36.406" fill="#5FAD56">stop_project</text>
<text x="37.074" y="36.406" fill="#D4C5A9">auth-service</text>
<text x="53.106" y="36.406" fill="#8A7D65">cli_user</text>
<text x="2.004" y="38.577" fill="#8A7D65">2026-07-15 09:35</text>
<text x="20.040" y="38.577" fill="#5FAD56">start_project</text>
<text x="37.074" y="38.577" fill="#D4C5A9">auth-service</text>
<text x="53.106" y="38.577" fill="#9B7ACC">mcp_session_a8f2</text>
<text x="2.004" y="40.748" fill="#8A7D65">2026-07-15 09:32</text>
<text x="20.040" y="40.748" fill="#5FAD56">start_project</text>
<text x="37.074" y="40.748" fill="#D4C5A9">api-gateway</text>
<text x="53.106" y="40.748" fill="#8A7D65">cli_user</text>
<text x="0.000" y="45.090" fill="#5AADA8">user@dev</text>
<text x="9.018" y="45.090" fill="#5C5242">~/projects</text>
<text x="20.040" y="45.090" fill="#8A7D65">$</text>
<text x="22.044" y="45.090" fill="#D4C5A9">seshat receipts verify</text>
<text x="2.004" y="49.432" fill="#5FAD56">Chain intact — 5 receipts verified.</text>
<text x="0.000" y="51.603" fill="#5AADA8">user@dev</text>
<text x="9.018" y="51.603" fill="#5C5242">~/projects</text>
<text x="20.040" y="51.603" fill="#8A7D65">$</text>
<rect x="22.044" y="49.933" width="1.002" height="2.171" fill="#E8AE52" opacity="0.8"/>
</svg>
</svg>
</g>
</svg>
</svg>